<?xml version="1.0" encoding="UTF-8"?><svg id="Layer_2" xmlns="http://www.w3.org/2000/svg" viewBox="0 0 365.03 365.03"><defs><style>.cls-1{letter-spacing:0em;}.cls-2{opacity:.7;}.cls-3{fill:#d0be66;font-family:TrajanPro-Regular, 'Trajan Pro';font-size:89.08px;}</style></defs><g id="Layer_1-2"><g><g class="cls-2"><circle cx="182.51" cy="182.51" r="179.42"/><path d="M182.51,6.2c47.1,0,91.37,18.34,124.67,51.64,33.3,33.3,51.64,77.58,51.64,124.67s-18.34,91.37-51.64,124.67c-33.3,33.3-77.58,51.64-124.67,51.64s-91.37-18.34-124.67-51.64C24.54,273.89,6.2,229.61,6.2,182.51S24.54,91.14,57.84,57.84C91.14,24.54,135.42,6.2,182.51,6.2m0-6.2C81.71,0,0,81.71,0,182.51s81.71,182.51,182.51,182.51,182.51-81.71,182.51-182.51S283.31,0,182.51,0h0Z"/></g><text class="cls-3" transform="translate(42.14 210.08) scale(.94 1)"><tspan class="cls-1" x="0" y="0">D</tspan><tspan x="80.79" y="0">RUG</tspan></text></g></g></svg>